<?xml version="1.0" encoding="UTF-8"?>
<svg version="1.1" xmlns="http://www.w3.org/2000/svg" width="474" height="474">
<path d="M0 0 C6.13606802 2.79718029 10.74244521 7.0196503 15.59375 11.6328125 C18.22468822 14.09723565 20.92981414 16.3612563 23.74609375 18.609375 C29.18000384 22.99381747 34.26935393 27.68937563 39.37109375 32.44921875 C42.32985397 35.20783839 45.3550446 37.88048826 48.4140625 40.52734375 C50.75668525 42.57070931 53.06382797 44.65118359 55.37109375 46.734375 C58.35172096 49.42420931 61.34354608 52.09747864 64.37109375 54.734375 C67.39864142 57.37127136 70.39046654 60.04454069 73.37109375 62.734375 C83.41466521 71.78880684 93.70317972 80.56007808 104 89.32421875 C109.42589252 93.94893796 114.80836007 98.59673126 120.05859375 103.421875 C123.49007519 106.57364325 126.98255884 109.57461881 130.62109375 112.484375 C135.9322803 116.76367388 140.85873574 121.38264064 145.80786133 126.06787109 C150.35713909 130.3515273 155.05259458 134.30926868 159.9375 138.20703125 C163.04900792 140.79912212 165.85377011 143.61995105 168.66015625 146.53515625 C170.44818016 148.39735054 170.44818016 148.39735054 173.12109375 150.234375 C176.77000215 153.47784913 178.88080774 157.42340185 179.72265625 162.25 C180.00735335 168.8239148 177.80444185 174.10482925 174.18359375 179.484375 C168.23514535 185.30063565 161.52961101 187.38258676 153.2890625 187.33203125 C152.35771484 187.32880859 151.42636719 187.32558594 150.46679688 187.32226562 C149.50708984 187.31388672 148.54738281 187.30550781 147.55859375 187.296875 C146.0900293 187.29010742 146.0900293 187.29010742 144.59179688 187.28320312 C142.18483264 187.27146184 139.77799518 187.25503919 137.37109375 187.234375 C137.38584244 188.47591339 137.40059113 189.71745178 137.41578674 190.99661255 C137.55508463 202.79204134 137.68770324 214.58752959 137.81405735 226.38310432 C137.8791985 232.44489892 137.94655855 238.50665069 138.01928711 244.56835938 C138.0896042 250.43629808 138.15370441 256.30427688 138.21378899 262.17232895 C138.2375591 264.39262156 138.2634365 266.61289282 138.29162788 268.8331337 C138.43246001 280.03335084 138.44619151 291.21145292 138.00756836 302.40576172 C137.97679231 303.31036699 137.94601625 304.21497227 137.91430759 305.14698982 C137.49880748 314.11066559 135.05765835 319.92867908 128.55859375 326.171875 C120.77270457 332.92849951 111.90242759 332.68990414 102.125 332.66796875 C100.74551641 332.67253939 99.36603509 332.67784756 97.98655701 332.68385315 C95.10609645 332.69274836 92.22591367 332.69040256 89.34545898 332.68041992 C85.67604912 332.66893459 82.0076023 332.68915198 78.33831882 332.71833706 C75.49246757 332.73678904 72.64684332 332.7363889 69.80094719 332.73069954 C67.79756937 332.7304741 65.79421259 332.74728564 63.79090881 332.76451111 C54.67274729 332.69523948 48.69749471 331.06317563 41.12109375 326.109375 C32.5451093 317.14357308 32.22246782 307.05947651 32.34375 295.29296875 C32.35640461 292.91080879 32.36876494 290.52864725 32.38085938 288.14648438 C32.40557075 284.41653441 32.43346057 280.68666815 32.46704102 276.95678711 C32.4975378 273.33967607 32.51511301 269.7226686 32.53125 266.10546875 C32.54470963 265.0102037 32.55816925 263.91493866 32.57203674 262.78648376 C32.88125629 247.42196835 32.88125629 247.42196835 26.37109375 234.234375 C19.38242079 229.10934816 12.6329121 229.07631656 4.3203125 229.06640625 C3.3475386 229.06307785 2.37476471 229.05974945 1.37251282 229.05632019 C-0.68256153 229.05126601 -2.73764405 229.0489114 -4.79272461 229.04907227 C-7.91989842 229.04689001 -11.04671686 229.02872976 -14.17382812 229.00976562 C-16.17578005 229.00683046 -18.17773364 229.00484649 -20.1796875 229.00390625 C-21.10703201 228.99672073 -22.03437653 228.98953522 -22.98982239 228.98213196 C-29.8501259 229.00600306 -37.15906599 229.20071601 -42.50390625 234.046875 C-43.05820313 234.52769531 -43.6125 235.00851562 -44.18359375 235.50390625 C-47.77393765 239.8026153 -48.02748032 244.72040582 -48.2578125 250.11328125 C-48.31504234 251.28293175 -48.31504234 251.28293175 -48.37342834 252.47621155 C-48.85822697 263.69853963 -48.65834211 274.93858266 -48.53295898 286.16723633 C-48.22587589 315.71249874 -48.22587589 315.71249874 -55.62890625 324.234375 C-61.71096368 329.86498074 -67.55542825 332.46551864 -75.93457031 332.52490234 C-77.16314758 332.53766205 -78.39172485 332.55042175 -79.65753174 332.56356812 C-81.6310965 332.56690659 -81.6310965 332.56690659 -83.64453125 332.5703125 C-85.02447647 332.57674981 -86.40442035 332.58347885 -87.78436279 332.59048462 C-90.67251748 332.60242982 -93.56055284 332.60616845 -96.44873047 332.60498047 C-100.12478243 332.60477776 -103.80005715 332.63204141 -107.47592545 332.66652489 C-110.32608455 332.68891785 -113.17606051 332.69281421 -116.02629852 332.69176102 C-118.03242233 332.6952268 -120.03848897 332.71681452 -122.04449463 332.73886108 C-132.45918674 332.68722958 -140.51937789 330.98629385 -148.05859375 323.50390625 C-152.59309402 316.95031258 -154.24857968 310.60087907 -154.38647461 302.72192383 C-154.42998377 301.36816886 -154.42998377 301.36816886 -154.47437191 299.98706532 C-154.78470779 288.80458066 -154.64804013 277.61759074 -154.5078125 266.43359375 C-154.48343201 264.13190762 -154.45959287 261.8302157 -154.43626404 259.52851868 C-154.37420997 253.54626737 -154.30493188 247.56412206 -154.23400879 241.58197021 C-154.16260254 235.44727295 -154.09822223 229.31250207 -154.03320312 223.17773438 C-153.90520914 211.19653365 -153.76956271 199.21543331 -153.62890625 187.234375 C-154.55002197 187.25794067 -154.55002197 187.25794067 -155.48974609 187.28198242 C-158.32770214 187.34513694 -161.16550958 187.38361677 -164.00390625 187.421875 C-164.96941406 187.44701172 -165.93492187 187.47214844 -166.9296875 187.49804688 C-174.7108835 187.57638106 -181.76833869 186.58428569 -188.50390625 182.484375 C-193.79984341 176.87691213 -195.9415365 171.06890574 -195.85546875 163.39453125 C-195.33940146 158.47409654 -193.34370749 154.30657686 -190.62890625 150.234375 C-189.96890625 150.234375 -189.30890625 150.234375 -188.62890625 150.234375 C-188.62890625 149.574375 -188.62890625 148.914375 -188.62890625 148.234375 C-187.37109375 146.9296875 -187.37109375 146.9296875 -185.50390625 145.359375 C-184.77429688 144.73804688 -184.0446875 144.11671875 -183.29296875 143.4765625 C-181.97425781 142.36667969 -181.97425781 142.36667969 -180.62890625 141.234375 C-178.37512901 139.32212192 -176.1262708 137.40415864 -173.87890625 135.484375 C-173.2763501 134.97044189 -172.67379395 134.45650879 -172.05297852 133.92700195 C-168.10610259 130.54539137 -164.24884469 127.08427348 -160.44140625 123.546875 C-155.89436638 119.32360655 -151.17754938 115.37108776 -146.34375 111.48046875 C-143.5221713 109.1460691 -140.82299913 106.71446902 -138.12890625 104.234375 C-134.57220381 100.96019077 -130.95728814 97.82795067 -127.19140625 94.796875 C-123.19661251 91.57490053 -119.38383661 88.22736161 -115.62890625 84.734375 C-101.42733958 71.55099901 -101.42733958 71.55099901 -96.37890625 69.17578125 C-94.26948921 68.29888305 -94.26948921 68.29888305 -93.62890625 65.234375 C-92.05836419 63.81740993 -90.42143961 62.47330684 -88.75390625 61.171875 C-84.74561038 57.97663139 -80.89740233 54.71507527 -77.12890625 51.234375 C-73.59339855 47.97930417 -70.00111838 44.86800619 -66.25390625 41.859375 C-62.0507647 38.47051729 -58.06685468 34.92200064 -54.12890625 31.234375 C-49.34892917 26.75824579 -44.43037385 22.55266519 -39.31640625 18.45703125 C-36.44591273 16.08303298 -33.72872405 13.58625381 -31.00390625 11.046875 C-21.68954222 2.46750382 -13.12029912 -3.8210678 0 0 Z " fill="#020202" transform="translate(245.62890625,71.765625)"/>
<path d="M0 0 C0.66 0.33 1.32 0.66 2 1 C1.01 1.8971875 1.01 1.8971875 0 2.8125 C-2.3373846 4.87501834 -2.3373846 4.87501834 -2 8 C-2.66 8.66 -3.32 9.32 -4 10 C-4.33 10.66 -4.66 11.32 -5 12 C-5.53625 11.731875 -6.0725 11.46375 -6.625 11.1875 C-9.57282601 10.95477689 -10.04811495 11.5799856 -12.25 13.4375 C-13.1575 14.283125 -14.065 15.12875 -15 16 C-14.67 16.99 -14.34 17.98 -14 19 C-17 19 -17 19 -20 18 C-13.40235323 11.91916889 -6.79775623 5.8580664 0 0 Z " fill="#3D3D3D" transform="translate(121,164)"/>
<path d="M0 0 C0.66 0.33 1.32 0.66 2 1 C1.505 1.598125 1.01 2.19625 0.5 2.8125 C-1.28276418 4.97029994 -1.28276418 4.97029994 -1 8 C-1.99 8 -2.98 8 -4 8 C-7.25961788 9.29080868 -9.33388521 11.11595771 -11.75 13.625 C-12.36359375 14.25664062 -12.9771875 14.88828125 -13.609375 15.5390625 C-14.06828125 16.02117187 -14.5271875 16.50328125 -15 17 C-15.99 16.67 -16.98 16.34 -18 16 C-17.34 16 -16.68 16 -16 16 C-15.67 15.01 -15.34 14.02 -15 13 C-13.28285771 11.45882932 -11.50204827 9.98770149 -9.6875 8.5625 C-6.25758059 5.85611499 -3.02581739 3.15518725 0 0 Z " fill="#585858" transform="translate(167,124)"/>
<path d="M0 0 C3.7952131 1.49097658 5.61042731 3.75700849 8 7 C3.375 10 3.375 10 0 10 C0 6.66666667 0 3.33333333 0 0 Z " fill="#232323" transform="translate(288,108)"/>
<path d="M0 0 C4.66666667 4 9.33333333 8 14 12 C13.01 12.66 12.02 13.32 11 14 C10.1028125 12.7934375 10.1028125 12.7934375 9.1875 11.5625 C7.19052724 8.77672016 7.19052724 8.77672016 4 8 C4 7.34 4 6.68 4 6 C3.34 5.67 2.68 5.34 2 5 C1.34 4.34 0.68 3.68 0 3 C0 2.01 0 1.02 0 0 Z " fill="#2A2A2A" transform="translate(398,204)"/>
<path d="M0 0 C4.18423892 3.50897269 8.19588166 7.08060535 12 11 C8.62537285 10.45276317 6.91765 9.9451 4 8 C3.34 7.67 2.68 7.34 2 7 C2 6.01 2 5.02 2 4 C1.34 3.67 0.68 3.34 0 3 C0 2.01 0 1.02 0 0 Z " fill="#373737" transform="translate(265,87)"/>
<path d="M0 0 C0.45375 0.66 0.9075 1.32 1.375 2 C1.91125 2.66 2.4475 3.32 3 4 C3.66 4 4.32 4 5 4 C5.33 3.34 5.66 2.68 6 2 C6.99 2.99 7.98 3.98 9 5 C8.01 5.99 7.02 6.98 6 8 C2.08597051 6.73058503 0.20927127 5.48832306 -2 2 C-1.34 2 -0.68 2 0 2 C0 1.34 0 0.68 0 0 Z " fill="#101010" transform="translate(286,392)"/>
<path d="M0 0 C0.66 0.33 1.32 0.66 2 1 C2.33 1 2.66 1 3 1 C4.33568021 1.32380126 5.66923011 1.65657551 7 2 C4.03 4.475 4.03 4.475 1 7 C-0.32 6.34 -1.64 5.68 -3 5 C-2.01 3.35 -1.02 1.7 0 0 Z " fill="#191919" transform="translate(413,249)"/>
<path d="M0 0 C0.99 0.33 1.98 0.66 3 1 C3 1.66 3 2.32 3 3 C1.25 4.2890625 1.25 4.2890625 -1 5.625 C-1.7425 6.07101563 -2.485 6.51703125 -3.25 6.9765625 C-3.8275 7.31429687 -4.405 7.65203125 -5 8 C-5 5 -5 5 -2.5 2.3125 C-1.675 1.549375 -0.85 0.78625 0 0 Z " fill="#313131" transform="translate(214,83)"/>
<path d="M0 0 C2.31 1.98 4.62 3.96 7 6 C3 7 3 7 0.75 6.0625 C0.1725 5.711875 -0.405 5.36125 -1 5 C-0.67 3.35 -0.34 1.7 0 0 Z " fill="#2C2C2C" transform="translate(257,80)"/>
<path d="M0 0 C0.66 0.33 1.32 0.66 2 1 C2 1.66 2 2.32 2 3 C-0.31 4.32 -2.62 5.64 -5 7 C-5 5.68 -5 4.36 -5 3 C-2.625 1.1875 -2.625 1.1875 0 0 Z " fill="#101010" transform="translate(207,299)"/>
<path d="M0 0 C0.66 0.33 1.32 0.66 2 1 C1.2575 1.8971875 1.2575 1.8971875 0.5 2.8125 C-1.28276418 4.97029994 -1.28276418 4.97029994 -1 8 C-1.99 8 -2.98 8 -4 8 C-4 4 -4 4 -2 1.75 C-1.01 0.88375 -1.01 0.88375 0 0 Z " fill="#353535" transform="translate(167,124)"/>
<path d="M0 0 C0.66 0.33 1.32 0.66 2 1 C1.67 2.65 1.34 4.3 1 6 C-1.31 6.33 -3.62 6.66 -6 7 C-4.02 4.69 -2.04 2.38 0 0 Z " fill="#333333" transform="translate(198,97)"/>
<path d="M0 0 C0.66 0.33 1.32 0.66 2 1 C1.2575 1.8971875 1.2575 1.8971875 0.5 2.8125 C-1.28276418 4.97029994 -1.28276418 4.97029994 -1 8 C-2.65 7.67 -4.3 7.34 -6 7 C-4.02 4.69 -2.04 2.38 0 0 Z " fill="#5A5A5A" transform="translate(107,176)"/>
<path d="M0 0 C0.33 0.66 0.66 1.32 1 2 C1.99 2.33 2.98 2.66 4 3 C3.01 3.99 2.02 4.98 1 6 C0.01 5.34 -0.98 4.68 -2 4 C-2 3.34 -2 2.68 -2 2 C-1.34 2 -0.68 2 0 2 C0 1.34 0 0.68 0 0 Z " fill="#252525" transform="translate(57,248)"/>
<path d="M0 0 C2.31 1.98 4.62 3.96 7 6 C6.01 6.33 5.02 6.66 4 7 C2 5.1875 2 5.1875 0 3 C0 2.01 0 1.02 0 0 Z " fill="#393939" transform="translate(398,204)"/>
<path d="M0 0 C0.45375 0.639375 0.9075 1.27875 1.375 1.9375 C2.83921726 4.09702406 2.83921726 4.09702406 5 5 C4.67 5.66 4.34 6.32 4 7 C0.83884224 5.63016497 0.0072908 5.0109362 -2 2 C-1.34 2 -0.68 2 0 2 C0 1.34 0 0.68 0 0 Z " fill="#4B4B4B" transform="translate(286,392)"/>
<path d="M0 0 C1.32 0 2.64 0 4 0 C4 1.98 4 3.96 4 6 C3.01 6.495 3.01 6.495 2 7 C1.34 4.69 0.68 2.38 0 0 Z " fill="#292929" transform="translate(275,308)"/>
<path d="M0 0 C0.93065133 2.60582371 1.14917407 3.64198224 0.0625 6.25 C-0.4634375 7.11625 -0.4634375 7.11625 -1 8 C-1.33 6.68 -1.66 5.36 -2 4 C-2.66 4 -3.32 4 -4 4 C-3.67 3.34 -3.34 2.68 -3 2 C-2.34 2 -1.68 2 -1 2 C-0.67 1.34 -0.34 0.68 0 0 Z " fill="#262626" transform="translate(423,240)"/>
<path d="M0 0 C0.33 0.66 0.66 1.32 1 2 C0.0625 4.125 0.0625 4.125 -1 6 C-3 6 -3 6 -6 5 C-4.02 3.35 -2.04 1.7 0 0 Z " fill="#434343" transform="translate(148,141)"/>
</svg>
